{"title":"Criminal Minds S11E03 HDTV x264-FLEET[rartv]","uid":12581159,"size":317571218,"categoryP":"video","categoryS":"tv_shows","magnet":"?xt=urn:btih:d82dfc350799fc67ca917ac4221ddc85442e7403&amp;dn=Criminal+Minds+S11E03+HDTV+x264-FLEET%5Brartv%5D&amp;tr=udp%3A%2F%2Ftracker.leechers-paradise.org%3A6969&amp;tr=udp%3A%2F%2Fzer0day.ch%3A1337&amp;tr=udp%3A%2F%2Fopen.demonii.com%3A1337&amp;tr=udp%3A%2F%2Ftracker.coppersurfer.tk%3A6969&amp;tr=udp%3A%2F%2Fexodus.desync.com%3A6969","seeders":0,"leechers":1,"uploader":"TheRival","files":3,"time":1444954055,"description":"Screens: \nhttp://extraimago.com/image/90j\r\n\r\nVideo\r\nID : 1\r\nFormat : AVC\r\nFormat/Info : Advanced Video Codec\r\nFormat profile :   \r\nFormat settings, CABAC : Yes\r\nFormat settings, ReFrames : 5 frames\r\nCodec ID : avc1\r\nCodec ID/Info : Advanced Video Coding\r\nDuration : 41mn 40s\r\nBit rate : 879 Kbps\r\nWidth : 720 pixels\r\nHeight : 404 pixels\r\nDisplay aspect ratio : 16:9\r\nFrame rate mode : Constant\r\nFrame rate : 23.976 fps\r\nColor space : YUV\r\nChroma subsampling : 4:2:0\r\nBit depth : 8 bits\r\nScan type : Progressive\r\nBits/(Pixel*Frame) : 0.126\r\nStream size : 262 MiB (87%)\r\nWriting library : x264 core 148 r2597 e86f3a1\r\nEncoding settings : cabac=1 / ref=5 / deblock=1:0:0 / analyse=0x3:0x113 / me=umh / subme=8 / psy=1 / psy_rd=1.00:0.00 / mixed_ref=1 / me_range=16 / chroma_me=1 / trellis=1 / 8x8dct=1 / cqm=0 / deadzone=21,11 / fast_pskip=1 / chroma_qp_offset=-2 / threads=13 / lookahead_threads=2 / sliced_threads=0 / nr=0 / decimate=1 / interlaced=0 / bluray_compat=0 / constrained_intra=0 / bframes=3 / b_pyramid=2 / b_adapt=2 / b_bias=0 / direct=3 / weightb=1 / open_gop=0 / weightp=2 / keyint=250 / keyint_min=23 / scenecut=40 / intra_refresh=0 / rc_lookahead=50 / rc=crf / mbtree=1 / crf=19.0 / qcomp=0.60 / qpmin=0 / qpmax=69 / qpstep=4 / ip_ratio=1.40 / aq=1:1.00\r\nEncoded date : UTC 2011-09-08 11:43:25\r\nTagged date : UTC 2011-09-08 11:43:25\r\nColor range : Limited\r\nMatrix coefficients : BT.709\r\n\r\nAudio\r\nID : 2\r\nFormat : AAC\r\nFormat/Info : Advanced Audio Codec\r\nFormat profile : LC\r\nCodec ID : 40\r\nDuration : 41mn 40s\r\nBit rate mode : Variable\r\nBit rate : 132 Kbps\r\nMaximum bit rate : 208 Kbps\r\nChannel(s) : 2 channels\r\nChannel positions : Front: L R\r\nSampling rate : 48.0 KHz\r\nCompression mode : Lossy\r\nStream size : 39.0 MiB (13%)\r\nEncoded date : UTC 2011-09-08 11:43:25\r\nTagged date : UTC 2011-09-08 11:43:25","torrent":{"xt":"urn:btih:d82dfc350799fc67ca917ac4221ddc85442e7403","amp;dn":"Criminal+Minds+S11E03+HDTV+x264-FLEET%5Brartv%5D","amp;tr":["udp%3A%2F%2Ftracker.leechers-paradise.org%3A6969","udp%3A%2F%2Fzer0day.ch%3A1337","udp%3A%2F%2Fopen.demonii.com%3A1337","udp%3A%2F%2Ftracker.coppersurfer.tk%3A6969","udp%3A%2F%2Fexodus.desync.com%3A6969"],"infoHash":"d82dfc350799fc67ca917ac4221ddc85442e7403","infoHashBuffer":{"type":"Buffer","data":[216,45,252,53,7,153,252,103,202,145,122,196,34,29,220,133,68,46,116,3]},"announce":[],"urlList":[]}}